<svg width="100" height="100" viewBox="0 0 100 100" fill="none" xmlns="http://www.w3.org/2000/svg">
<path d="M93.75 50C93.75 38.3968 89.1406 27.2688 80.9359 19.0641C72.7312 10.8594 61.6032 6.25 50 6.25C38.9834 6.23983 28.3684 10.3862 20.2756 17.8609C12.1827 25.3355 7.20761 35.5882 6.34414 46.5709C5.48068 57.5536 8.79238 68.4578 15.6177 77.1054C22.4431 85.7529 32.2796 91.5072 43.1625 93.2188V62.6438H32.0625V50H43.1687V40.3625C43.1687 29.4 49.7 23.3375 59.6937 23.3375C64.4812 23.3375 69.4875 24.1938 69.4875 24.1938V34.9625H63.9687C58.5312 34.9625 56.8437 38.3375 56.8437 41.7938V50H68.975L67.0375 62.6438H56.8375V93.2188C67.1281 91.5892 76.4996 86.3411 83.2661 78.4185C90.0327 70.4959 93.7502 60.4189 93.75 50Z" fill="#1877F2"/>
<path d="M67.0312 62.6437L68.9688 50H56.8375V41.7938C56.8375 38.3375 58.525 34.9625 63.9625 34.9625H69.4812V24.1875C69.4812 24.1875 64.475 23.3313 59.6875 23.3313C49.6875 23.3313 43.1625 29.3938 43.1625 40.3563V50H32.0625V62.6437H43.1687V93.2188C47.6992 93.9317 52.3133 93.9317 56.8438 93.2188V62.6437H67.0312Z" fill="white"/>
</svg>
