<svg width="24" height="24" viewBox="0 0 24 24" fill="none" xmlns="http://www.w3.org/2000/svg">
<path d="M20.75 4.125H19.875V3.25C19.875 1.80249 18.6975 0.625 17.25 0.625H3.25C1.80249 0.625 0.625 1.80249 0.625 3.25V17.25C0.625 18.6975 1.80249 19.875 3.25 19.875H4.125V20.75C4.125 22.1975 5.30249 23.375 6.75 23.375H20.75C22.1975 23.375 23.375 22.1975 23.375 20.75V6.75C23.375 5.30249 22.1975 4.125 20.75 4.125ZM3.25 2.375H17.25C17.7328 2.375 18.125 2.76761 18.125 3.25V8.17074L12.787 14.2721L7.3191 9.58561C6.97216 9.28785 6.45434 9.30745 6.13138 9.63129L2.375 13.3877V3.25C2.375 2.76761 2.76717 2.375 3.25 2.375ZM21.625 20.75C21.625 21.2324 21.2328 21.625 20.75 21.625H6.75C6.26718 21.625 5.875 21.2324 5.875 20.75V19.875H17.25C18.6975 19.875 19.875 18.6975 19.875 17.25V5.875H20.75C21.2328 5.875 21.625 6.26761 21.625 6.75V20.75Z" fill="#0DE671"/>
</svg>
