<svg width="28" height="28" viewBox="0 0 28 28" fill="none" xmlns="http://www.w3.org/2000/svg">
<g clip-path="url(#clip0_4_164)">
<path d="M25.767 17.1173C25.3641 16.7165 25.0447 16.2398 24.8272 15.7147C24.6097 15.1896 24.4985 14.6267 24.5 14.0583V10.5C24.5 7.71523 23.3937 5.04451 21.4246 3.07538C19.4555 1.10625 16.7848 0 14 0C11.2152 0 8.54451 1.10625 6.57538 3.07538C4.60624 5.04451 3.5 7.71523 3.5 10.5V14.0583C3.50148 14.6267 3.39027 15.1896 3.17279 15.7147C2.95532 16.2398 2.63589 16.7165 2.233 17.1173C1.72371 17.6266 1.37688 18.2754 1.23636 18.9817C1.09584 19.6881 1.16795 20.4202 1.44357 21.0856C1.71918 21.751 2.18592 22.3197 2.78476 22.7198C3.3836 23.1199 4.08763 23.3334 4.80783 23.3333H8.28333C8.5511 24.652 9.26651 25.8376 10.3084 26.6891C11.3502 27.5407 12.6544 28.0058 14 28.0058C15.3456 28.0058 16.6498 27.5407 17.6916 26.6891C18.7335 25.8376 19.4489 24.652 19.7167 23.3333H23.1933C23.9135 23.3334 24.6176 23.1199 25.2164 22.7198C25.8152 22.3197 26.282 21.751 26.5576 21.0856C26.8332 20.4202 26.9053 19.6881 26.7648 18.9817C26.6243 18.2754 26.2763 17.6266 25.767 17.1173ZM14 25.6667C13.2787 25.6637 12.5759 25.4379 11.9878 25.0202C11.3998 24.6026 10.9551 24.0134 10.7147 23.3333H17.2853C17.0449 24.0134 16.6002 24.6026 16.0121 25.0202C15.4241 25.4379 14.7213 25.6637 14 25.6667ZM23.1922 21H4.80783C4.54905 21.0002 4.29604 20.9235 4.08083 20.7798C3.86561 20.6361 3.69787 20.4318 3.59881 20.1928C3.49976 19.9537 3.47386 19.6906 3.52439 19.4368C3.57492 19.183 3.6996 18.9499 3.88266 18.767C4.50292 18.15 4.99468 17.4162 5.32951 16.608C5.66434 15.7998 5.83558 14.9332 5.83333 14.0583V10.5C5.83333 8.33407 6.69374 6.25684 8.22529 4.72529C9.75684 3.19375 11.8341 2.33333 14 2.33333C16.1659 2.33333 18.2432 3.19375 19.7747 4.72529C21.3062 6.25684 22.1667 8.33407 22.1667 10.5V14.0583C22.1644 14.9332 22.3357 15.7998 22.6705 16.608C23.0053 17.4162 23.4971 18.15 24.1173 18.767C24.3004 18.9499 24.4251 19.183 24.4756 19.4368C24.5261 19.6906 24.5002 19.9537 24.4012 20.1928C24.3021 20.4318 24.1344 20.6361 23.9192 20.7798C23.7039 20.9235 23.4509 21.0002 23.1922 21Z" fill="#898F9C"/>
</g>
<defs>
<clipPath id="clip0_4_164">
<rect width="28" height="28" fill="white"/>
</clipPath>
</defs>
</svg>
