<svg width="26" height="26" viewBox="0 0 26 26" fill="none" xmlns="http://www.w3.org/2000/svg">
<g clip-path="url(#clip0_4_130)">
<path d="M13 2.16666C10.8573 2.16666 8.76282 2.80203 6.98129 3.99241C5.19975 5.18279 3.81122 6.87473 2.99127 8.85426C2.17132 10.8338 1.95678 13.012 2.37479 15.1135C2.7928 17.2149 3.82457 19.1453 5.33964 20.6603C6.85471 22.1754 8.78503 23.2072 10.8865 23.6252C12.9879 24.0432 15.1662 23.8286 17.1457 23.0087C19.1252 22.1887 20.8172 20.8002 22.0075 19.0187C23.1979 17.2371 23.8333 15.1426 23.8333 13C23.8333 11.5773 23.5531 10.1686 23.0087 8.85426C22.4642 7.5399 21.6663 6.34564 20.6603 5.33967C19.6543 4.33371 18.4601 3.53573 17.1457 2.9913C15.8313 2.44688 14.4226 2.16666 13 2.16666ZM16.25 14.0833H14.0833V16.25C14.0833 16.5373 13.9692 16.8129 13.766 17.016C13.5628 17.2192 13.2873 17.3333 13 17.3333C12.7126 17.3333 12.4371 17.2192 12.2339 17.016C12.0308 16.8129 11.9166 16.5373 11.9166 16.25V14.0833H9.74996C9.46265 14.0833 9.1871 13.9692 8.98393 13.766C8.78077 13.5629 8.66663 13.2873 8.66663 13C8.66663 12.7127 8.78077 12.4371 8.98393 12.234C9.1871 12.0308 9.46265 11.9167 9.74996 11.9167H11.9166V9.75C11.9166 9.46268 12.0308 9.18713 12.2339 8.98397C12.4371 8.7808 12.7126 8.66666 13 8.66666C13.2873 8.66666 13.5628 8.7808 13.766 8.98397C13.9692 9.18713 14.0833 9.46268 14.0833 9.75V11.9167H16.25C16.5373 11.9167 16.8128 12.0308 17.016 12.234C17.2192 12.4371 17.3333 12.7127 17.3333 13C17.3333 13.2873 17.2192 13.5629 17.016 13.766C16.8128 13.9692 16.5373 14.0833 16.25 14.0833Z" fill="#242527"/>
</g>
<defs>
<clipPath id="clip0_4_130">
<rect width="26" height="26" fill="white"/>
</clipPath>
</defs>
</svg>
