<svg width="22" height="22" viewBox="0 0 22 22" fill="none" xmlns="http://www.w3.org/2000/svg">
<g clip-path="url(#clip0_4_135)">
<path d="M10.0833 20.1667C4.52375 20.1667 0 15.6429 0 10.0833C0 4.52375 4.52375 0 10.0833 0C15.6429 0 20.1667 4.52375 20.1667 10.0833C20.1667 15.6429 15.6429 20.1667 10.0833 20.1667ZM10.0833 1.83333C5.53483 1.83333 1.83333 5.53392 1.83333 10.0833C1.83333 14.6327 5.53483 18.3333 10.0833 18.3333C14.6318 18.3333 18.3333 14.6327 18.3333 10.0833C18.3333 5.53392 14.6318 1.83333 10.0833 1.83333Z" fill="#242527"/>
<path d="M21.0833 22C20.9629 22.0001 20.8437 21.9765 20.7325 21.9304C20.6212 21.8843 20.5202 21.8167 20.4352 21.7314L16.0398 17.336C15.8679 17.164 15.7714 16.9308 15.7715 16.6876C15.7716 16.4444 15.8683 16.2113 16.0403 16.0394C16.2123 15.8675 16.4455 15.771 16.6887 15.7711C16.9318 15.7712 17.165 15.8678 17.3369 16.0398L21.7314 20.4352C21.86 20.5633 21.9477 20.7266 21.9833 20.9046C22.0189 21.0825 22.0008 21.267 21.9314 21.4347C21.8619 21.6023 21.7442 21.7456 21.5933 21.8462C21.4423 21.9469 21.2648 22.0004 21.0833 22Z" fill="#242527"/>
</g>
<defs>
<clipPath id="clip0_4_135">
<rect width="22" height="22" fill="white"/>
</clipPath>
</defs>
</svg>
