<svg width="26" height="26" viewBox="0 0 26 26" fill="none" xmlns="http://www.w3.org/2000/svg">
<g clip-path="url(#clip0_4_152)">
<path d="M21.0303 25.0046H4.96972C4.32201 25.0206 3.69431 24.7795 3.22382 24.3341C2.75332 23.8886 2.4783 23.275 2.45886 22.6274V13.2451C2.45886 12.9989 2.55669 12.7627 2.73083 12.5885C2.90498 12.4144 3.14116 12.3166 3.38743 12.3166C3.63371 12.3166 3.86989 12.4144 4.04403 12.5885C4.21817 12.7627 4.31601 12.9989 4.31601 13.2451V22.6274C4.33646 22.7819 4.41601 22.9224 4.53793 23.0193C4.65985 23.1163 4.81464 23.1622 4.96972 23.1474H21.0303C21.1854 23.1622 21.3402 23.1163 21.4621 23.0193C21.584 22.9224 21.6636 22.7819 21.684 22.6274V13.2451C21.684 12.9989 21.7818 12.7627 21.956 12.5885C22.1301 12.4144 22.3663 12.3166 22.6126 12.3166C22.8589 12.3166 23.095 12.4144 23.2692 12.5885C23.4433 12.7627 23.5411 12.9989 23.5411 13.2451V22.6274C23.5217 23.275 23.2467 23.8886 22.7762 24.3341C22.3057 24.7795 21.678 25.0206 21.0303 25.0046Z" fill="#898F9C"/>
<path d="M15.444 14.3371C14.8412 14.3363 14.2511 14.1636 13.7429 13.8394L13 13.3417C12.7983 13.2159 12.5654 13.1492 12.3277 13.1492C12.09 13.1492 11.8571 13.2159 11.6554 13.3417L10.8383 13.832C10.2932 14.1581 9.66216 14.3113 9.02827 14.2715C8.39438 14.2317 7.78743 14.0008 7.28742 13.6091C7.07933 13.4421 6.82415 13.3444 6.55769 13.3297C6.29123 13.315 6.02687 13.3842 5.80171 13.5274L5.48971 13.7206C4.91146 14.0822 4.23042 14.244 3.55131 14.1809C2.87219 14.1178 2.23259 13.8334 1.73085 13.3714L1.18114 12.8663C0.865029 12.5705 0.613438 12.2127 0.442144 11.8151C0.270849 11.4175 0.183546 10.9889 0.185708 10.556V8.69886C0.190734 7.94106 0.382068 7.19613 0.742851 6.52972L2.51085 3.17943C2.84599 2.53147 3.35028 1.98632 3.97021 1.60181C4.59015 1.21729 5.3026 1.00776 6.03199 0.99543H19.968C20.6974 1.00776 21.4098 1.21729 22.0298 1.60181C22.6497 1.98632 23.154 2.53147 23.4891 3.17943L25.2571 6.52972C25.6102 7.19813 25.7938 7.94295 25.792 8.69886V10.4C25.7908 10.8842 25.6776 11.3615 25.461 11.7945C25.2445 12.2276 24.9306 12.6046 24.544 12.896L23.608 13.5943C23.0497 14.016 22.3656 14.2372 21.6661 14.2224C20.9666 14.2076 20.2925 13.9575 19.7526 13.5126L19.5669 13.3714C19.3612 13.2009 19.1072 13.0992 18.8407 13.0806C18.5742 13.0619 18.3086 13.1273 18.0811 13.2674L17.0411 13.8989C16.5587 14.1879 16.0064 14.3395 15.444 14.3371ZM12.2943 11.284C12.8983 11.2842 13.4892 11.4597 13.9954 11.7891L14.7383 12.2794C14.94 12.4052 15.1729 12.4719 15.4106 12.4719C15.6483 12.4719 15.8812 12.4052 16.0829 12.2794L17.1303 11.6406C17.6843 11.307 18.3279 11.1529 18.9729 11.1995C19.6179 11.246 20.2328 11.4909 20.7331 11.9006L20.9411 12.0714C21.1625 12.2486 21.4376 12.3452 21.7211 12.3452C22.0047 12.3452 22.2798 12.2486 22.5011 12.0714L23.4371 11.3731C23.5918 11.2609 23.719 11.1149 23.809 10.9464C23.8991 10.7778 23.9498 10.591 23.9571 10.4V8.69886C23.9555 8.25576 23.8458 7.81975 23.6377 7.42857L21.8474 4.056C21.6732 3.70343 21.4062 3.40506 21.075 3.193C20.7438 2.98095 20.3611 2.86325 19.968 2.85257H6.03199C5.63889 2.86325 5.25615 2.98095 4.92497 3.193C4.5938 3.40506 4.32675 3.70343 4.15257 4.056L2.36228 7.42857C2.15061 7.82641 2.04086 8.27051 2.04285 8.72114V10.5783C2.04427 10.752 2.08051 10.9237 2.14941 11.0832C2.2183 11.2427 2.31847 11.3867 2.44399 11.5069L2.99371 12.012C3.19773 12.2006 3.45825 12.3166 3.73491 12.3421C4.01157 12.3677 4.28892 12.3012 4.52399 12.1531L4.83599 11.96C5.38177 11.6195 6.01947 11.4559 6.66177 11.4918C7.30407 11.5277 7.91958 11.7613 8.42399 12.1606C8.6272 12.319 8.87358 12.4123 9.13077 12.4282C9.38796 12.4441 9.64395 12.3819 9.86514 12.2497L10.6749 11.7594C11.1599 11.4534 11.7208 11.2887 12.2943 11.284Z" fill="#898F9C"/>
<path d="M24.4177 9.00343H1.58226C1.33599 9.00343 1.0998 8.9056 0.925659 8.73146C0.751518 8.55732 0.653687 8.32113 0.653687 8.07486C0.653687 7.82858 0.751518 7.5924 0.925659 7.41826C1.0998 7.24412 1.33599 7.14629 1.58226 7.14629H24.4177C24.664 7.14629 24.9001 7.24412 25.0743 7.41826C25.2484 7.5924 25.3463 7.82858 25.3463 8.07486C25.3463 8.32113 25.2484 8.55732 25.0743 8.73146C24.9001 8.9056 24.664 9.00343 24.4177 9.00343ZM15.9714 24.5737C15.7251 24.5737 15.4889 24.4759 15.3148 24.3017C15.1407 24.1276 15.0428 23.8914 15.0428 23.6451V19.1286C15.0428 19.0213 15.0217 18.915 14.9806 18.8159C14.9396 18.7167 14.8794 18.6266 14.8035 18.5508C14.7276 18.4749 14.6375 18.4147 14.5384 18.3736C14.4393 18.3326 14.333 18.3114 14.2257 18.3114H11.7743C11.6669 18.3114 11.5607 18.3326 11.4616 18.3736C11.3624 18.4147 11.2723 18.4749 11.1965 18.5508C11.1206 18.6266 11.0604 18.7167 11.0193 18.8159C10.9783 18.915 10.9571 19.0213 10.9571 19.1286V23.6451C10.9571 23.8914 10.8593 24.1276 10.6851 24.3017C10.511 24.4759 10.2748 24.5737 10.0285 24.5737C9.78227 24.5737 9.54609 24.4759 9.37194 24.3017C9.1978 24.1276 9.09997 23.8914 9.09997 23.6451V19.1286C9.10193 18.4199 9.38432 17.7408 9.88542 17.2397C10.3865 16.7386 11.0656 16.4562 11.7743 16.4543H14.2257C14.9343 16.4562 15.6134 16.7386 16.1145 17.2397C16.6156 17.7408 16.898 18.4199 16.9 19.1286V23.6451C16.9 23.8914 16.8021 24.1276 16.628 24.3017C16.4539 24.4759 16.2177 24.5737 15.9714 24.5737Z" fill="#898F9C"/>
</g>
<defs>
<clipPath id="clip0_4_152">
<rect width="26" height="26" fill="white"/>
</clipPath>
</defs>
</svg>
