<svg width="30" height="26" viewBox="0 0 30 26" fill="none" xmlns="http://www.w3.org/2000/svg">
<path d="M24 0H6C2.7 0 0 2.7 0 6V15C0 18.3 2.7 21 6 21H13.5V22.5H12C11.1 22.5 10.5 23.1 10.5 24C10.5 24.9 11.1 25.5 12 25.5H18C18.9 25.5 19.5 24.9 19.5 24C19.5 23.1 18.9 22.5 18 22.5H16.5V21H24C27.3 21 30 18.3 30 15V6C30 2.7 27.3 0 24 0ZM27 15C27 16.65 25.65 18 24 18H6C4.35 18 3 16.65 3 15V6C3 4.35 4.35 3 6 3H24C25.65 3 27 4.35 27 6V15Z" fill="#898F9C"/>
<path d="M18.9 9.3L14.4 6.3C13.95 6 13.35 6 12.9 6.3C12.3 6.45 12 6.9 12 7.5V13.5C12 14.1 12.3 14.55 12.75 14.85C13.05 15 13.2 15 13.5 15C13.8 15 14.1 14.85 14.4 14.7L18.9 11.7C19.35 11.4 19.5 10.95 19.5 10.5C19.5 10.05 19.2 9.6 18.9 9.3Z" fill="#898F9C"/>
</svg>
